<mxfile host="app.diagrams.net" modified="2023-05-27T12:57:58.794Z" agent="Mozilla/5.0 (Windows NT 10.0; Win64; x64) AppleWebKit/537.36 (KHTML, like Gecko) Chrome/112.0.0.0 Safari/537.36" version="21.3.4" etag="n8Psdrw6JWPgslIPLYaH" type="github">
  <diagram name="Page-1" id="U282xjtSJA6cnNhm1nYM">
    <mxGraphModel>
      <root>
        <mxCell id="0" />
        <mxCell id="1" parent="0" />
      </root>
    </mxGraphModel>
  </diagram>
</mxfile>
